<svg width="31" height="24" viewBox="0 0 31 24" fill="none" xmlns="http://www.w3.org/2000/svg">
    <path d="M30.1935 9.29031V17.8064C30.1928 18.4222 29.9479 19.0126 29.5125 19.448C29.0771 19.8834 28.4867 20.1283 27.8709 20.129H27.0967V23.2258C27.0967 23.3729 27.0547 23.517 26.9757 23.6412C26.8967 23.7653 26.784 23.8644 26.6507 23.9268C26.5175 23.9893 26.3692 24.0124 26.2232 23.9937C26.0773 23.9749 25.9397 23.9149 25.8266 23.8208L21.3969 20.129H13.9355C13.3197 20.1283 12.7293 19.8834 12.2939 19.448C11.8585 19.0126 11.6136 18.4222 11.6129 17.8064V17.0322H19.3548C20.3811 17.031 21.365 16.6228 22.0907 15.8971C22.8163 15.1714 23.2246 14.1875 23.2258 13.1613V6.96773H27.8709C28.4867 6.96841 29.0771 7.21332 29.5125 7.64875C29.9479 8.08417 30.1928 8.67453 30.1935 9.29031ZM19.3548 15.4838H8.87224L4.45842 20.6322C4.35548 20.7522 4.21829 20.8377 4.0653 20.8774C3.91231 20.9171 3.75084 20.909 3.60258 20.8542C3.45433 20.7994 3.3264 20.7005 3.23598 20.5709C3.14556 20.4413 3.09698 20.2871 3.09677 20.129V15.4838H2.32258C1.7068 15.4832 1.11644 15.2383 0.681014 14.8028C0.245593 14.3674 0.000676241 13.777 0 13.1613V2.32258C0.000676241 1.7068 0.245593 1.11644 0.681014 0.681014C1.11644 0.245593 1.7068 0.000676241 2.32258 0H19.3548C19.9706 0.000676241 20.561 0.245593 20.9964 0.681014C21.4318 1.11644 21.6767 1.7068 21.6774 2.32258V13.1613C21.6767 13.777 21.4318 14.3674 20.9964 14.8028C20.561 15.2383 19.9706 15.4832 19.3548 15.4838ZM17.0322 9.29031C17.0322 9.08498 16.9507 8.88806 16.8055 8.74287C16.6603 8.59768 16.4634 8.51612 16.258 8.51612H5.41935C5.21402 8.51612 5.0171 8.59768 4.87191 8.74287C4.72672 8.88806 4.64515 9.08498 4.64515 9.29031C4.64515 9.49564 4.72672 9.69256 4.87191 9.83775C5.0171 9.98293 5.21402 10.0645 5.41935 10.0645H16.258C16.4634 10.0645 16.6603 9.98293 16.8055 9.83775C16.9507 9.69256 17.0322 9.49564 17.0322 9.29031ZM17.0322 5.41935C17.0322 5.21402 16.9507 5.0171 16.8055 4.87191C16.6603 4.72672 16.4634 4.64515 16.258 4.64515H5.41935C5.21402 4.64515 5.0171 4.72672 4.87191 4.87191C4.72672 5.0171 4.64515 5.21402 4.64515 5.41935C4.64515 5.62468 4.72672 5.82159 4.87191 5.96678C5.0171 6.11197 5.21402 6.19354 5.41935 6.19354H16.258C16.4634 6.19354 16.6603 6.11197 16.8055 5.96678C16.9507 5.82159 17.0322 5.62468 17.0322 5.41935Z" fill="white"/>
</svg>
