<svg width="24" height="24" viewBox="0 0 24 24" fill="none" xmlns="http://www.w3.org/2000/svg">
<path d="M24 0H0V24H24V0Z" fill="#252A2F"/>
<path d="M5.72732 8.02645C5.74735 7.82853 5.67187 7.63291 5.52408 7.4997L4.01866 5.68618V5.41528H8.693L12.306 13.3391L15.4825 5.41528H19.9385V5.68618L18.6514 6.92028C18.5404 7.00486 18.4854 7.14388 18.5084 7.28148V16.3491C18.4854 16.4867 18.5404 16.6257 18.6514 16.7103L19.9084 17.9444V18.2153H13.5856V17.9444L14.8878 16.6802C15.0158 16.5523 15.0158 16.5146 15.0158 16.319V8.98965L11.3952 18.1852H10.906L6.69079 8.98965V15.1526C6.65564 15.4117 6.7417 15.6726 6.92413 15.86L8.61773 17.9143V18.1852H3.81543V17.9143L5.50903 15.86C5.69013 15.6723 5.77117 15.4097 5.72732 15.1526V8.02645Z" fill="white"/>
</svg>