<svg width="24" height="22" viewBox="0 0 24 22" fill="none" xmlns="http://www.w3.org/2000/svg">
<path fill-rule="evenodd" clip-rule="evenodd" d="M18.384 20.9426C18.706 21.1841 19.121 21.2444 19.491 21.0962C19.8609 20.9469 20.1329 20.6123 20.2149 20.2068C21.0839 15.8825 23.1919 4.93746 23.9829 1.00392C24.0429 0.707452 23.9429 0.399334 23.7229 0.201334C23.5029 0.00333348 23.1979 -0.0538432 22.9259 0.0530981C18.733 1.69639 5.82027 6.8264 0.542386 8.89428C0.207393 9.02558 -0.0106019 9.36652 0.000397845 9.74028C0.0123976 10.1151 0.250392 10.4402 0.593384 10.5492C2.96033 11.2989 6.06726 12.3418 6.06726 12.3418C6.06726 12.3418 7.51923 16.9848 8.27621 19.3459C8.37121 19.6424 8.5902 19.8754 8.8792 19.9558C9.16719 20.0352 9.47518 19.9516 9.69018 19.7366C10.9061 18.5211 12.7861 16.6417 12.7861 16.6417C12.7861 16.6417 16.358 19.4148 18.384 20.9426ZM7.37423 11.7552L9.05319 17.619L9.42618 13.9057C9.42618 13.9057 15.913 7.71052 19.611 4.17934C19.719 4.07557 19.7339 3.90193 19.644 3.78016C19.555 3.6584 19.391 3.62981 19.268 3.7124C14.9821 6.6104 7.37423 11.7552 7.37423 11.7552Z" fill="white"/>
</svg>
