<svg width="24" height="19" viewBox="0 0 24 19" fill="none" xmlns="http://www.w3.org/2000/svg">
<path fill-rule="evenodd" clip-rule="evenodd" d="M21.1727 2.98124C22.1898 2.39289 22.9702 1.45998 23.3365 0.348651C22.3842 0.894781 21.3319 1.28974 20.2092 1.50356C19.3133 0.577454 18.0328 0 16.6156 0C13.8968 0 11.6936 2.1314 11.6936 4.75991C11.6936 5.13308 11.7345 5.49671 11.819 5.844C7.72812 5.64516 4.10072 3.75209 1.67072 0.870267C1.2467 1.57574 1.0044 2.39289 1.0044 3.26452C1.0044 4.91517 1.87357 6.37242 3.19493 7.22771C2.38774 7.20319 1.62846 6.98665 0.96355 6.63255V6.69111C0.96355 8.99821 2.65962 10.9226 4.91495 11.3584C4.50079 11.4701 4.06691 11.5259 3.61613 11.5259C3.29917 11.5259 2.98926 11.4973 2.69061 11.4415C3.31608 13.3318 5.13471 14.7101 7.29002 14.7469C5.6038 16.0243 3.48089 16.7843 1.17485 16.7843C0.777602 16.7843 0.384575 16.7639 0 16.7189C2.17926 18.0686 4.76704 18.8571 7.54781 18.8571C16.6057 18.8571 21.5559 11.6036 21.5559 5.31285C21.5559 5.10584 21.5531 4.90019 21.5432 4.69726C22.5054 4.02584 23.3421 3.18689 24 2.23219C23.1167 2.6108 22.1673 2.86684 21.1727 2.98124Z" fill="white"/>
</svg>